<mxfile host="www.draw.io" modified="2019-12-15T22:04:44.848Z" agent="Mozilla/5.0 (X11; Ubuntu; Linux x86_64; rv:71.0) Gecko/20100101 Firefox/71.0" etag="kiqxkmAz9IaQM077DG5A" version="12.4.2" type="github" pages="1">
  <diagram id="LZQuAkBcqZ6_lEjq8BTj" name="Class diagram">
    <mxGraphModel dx="2160" dy="1123" grid="1" gridSize="10" guides="1" tooltips="1" connect="1" arrows="1" fold="1" page="1" pageScale="1" pageWidth="1169" pageHeight="827" math="0" shadow="0">
      <root>
        <mxCell id="0"/>
        <mxCell id="1" parent="0"/>
        <mxCell id="s2ryrFD3tATTD8HhkPcw-1" value="User" style="swimlane;fontStyle=1;align=center;verticalAlign=top;childLayout=stackLayout;horizontal=1;startSize=65;horizontalStack=0;resizeParent=1;resizeParentMax=0;resizeLast=0;collapsible=1;marginBottom=0;fontSize=35;" vertex="1" parent="1">
          <mxGeometry x="20" y="20" width="360" height="481" as="geometry"/>
        </mxCell>
        <mxCell id="s2ryrFD3tATTD8HhkPcw-2" value="+ ID : int&#xa;+ number : string &#xa;+ name : string &#xa;+ status : string " style="text;strokeColor=none;fillColor=none;align=left;verticalAlign=top;spacingLeft=4;spacingRight=4;overflow=hidden;rotatable=0;points=[[0,0.5],[1,0.5]];portConstraint=eastwest;fontSize=35;" vertex="1" parent="s2ryrFD3tATTD8HhkPcw-1">
          <mxGeometry y="65" width="360" height="205" as="geometry"/>
        </mxCell>
        <mxCell id="s2ryrFD3tATTD8HhkPcw-3" value="" style="line;strokeWidth=1;fillColor=none;align=left;verticalAlign=middle;spacingTop=-1;spacingLeft=3;spacingRight=3;rotatable=0;labelPosition=right;points=[];portConstraint=eastwest;" vertex="1" parent="s2ryrFD3tATTD8HhkPcw-1">
          <mxGeometry y="270" width="360" height="8" as="geometry"/>
        </mxCell>
        <mxCell id="s2ryrFD3tATTD8HhkPcw-4" value="+ accept_mission()&#xa;+ send_location()&#xa;+ send_message()&#xa;+ receive message()&#xa;" style="text;strokeColor=none;fillColor=none;align=left;verticalAlign=top;spacingLeft=4;spacingRight=4;overflow=hidden;rotatable=0;points=[[0,0.5],[1,0.5]];portConstraint=eastwest;fontSize=35;" vertex="1" parent="s2ryrFD3tATTD8HhkPcw-1">
          <mxGeometry y="278" width="360" height="203" as="geometry"/>
        </mxCell>
        <mxCell id="s2ryrFD3tATTD8HhkPcw-11" value="Admin" style="swimlane;fontStyle=1;align=center;verticalAlign=top;childLayout=stackLayout;horizontal=1;startSize=65;horizontalStack=0;resizeParent=1;resizeParentMax=0;resizeLast=0;collapsible=1;marginBottom=0;fontSize=35;" vertex="1" parent="1">
          <mxGeometry x="780" y="20" width="360" height="421" as="geometry"/>
        </mxCell>
        <mxCell id="s2ryrFD3tATTD8HhkPcw-12" value="+ ID : int&#xa;+ lvl : int" style="text;strokeColor=none;fillColor=none;align=left;verticalAlign=top;spacingLeft=4;spacingRight=4;overflow=hidden;rotatable=0;points=[[0,0.5],[1,0.5]];portConstraint=eastwest;fontSize=35;" vertex="1" parent="s2ryrFD3tATTD8HhkPcw-11">
          <mxGeometry y="65" width="360" height="145" as="geometry"/>
        </mxCell>
        <mxCell id="s2ryrFD3tATTD8HhkPcw-13" value="" style="line;strokeWidth=1;fillColor=none;align=left;verticalAlign=middle;spacingTop=-1;spacingLeft=3;spacingRight=3;rotatable=0;labelPosition=right;points=[];portConstraint=eastwest;" vertex="1" parent="s2ryrFD3tATTD8HhkPcw-11">
          <mxGeometry y="210" width="360" height="8" as="geometry"/>
        </mxCell>
        <mxCell id="s2ryrFD3tATTD8HhkPcw-14" value="+ make_mission()&#xa;+ check_route()&#xa;+ send_message()&#xa;+ receive message()&#xa;" style="text;strokeColor=none;fillColor=none;align=left;verticalAlign=top;spacingLeft=4;spacingRight=4;overflow=hidden;rotatable=0;points=[[0,0.5],[1,0.5]];portConstraint=eastwest;fontSize=35;" vertex="1" parent="s2ryrFD3tATTD8HhkPcw-11">
          <mxGeometry y="218" width="360" height="203" as="geometry"/>
        </mxCell>
        <mxCell id="s2ryrFD3tATTD8HhkPcw-15" value="Admin" style="swimlane;fontStyle=1;align=center;verticalAlign=top;childLayout=stackLayout;horizontal=1;startSize=65;horizontalStack=0;resizeParent=1;resizeParentMax=0;resizeLast=0;collapsible=1;marginBottom=0;fontSize=35;" vertex="1" parent="1">
          <mxGeometry x="300" y="590" width="540" height="430" as="geometry"/>
        </mxCell>
        <mxCell id="s2ryrFD3tATTD8HhkPcw-16" value="+ ID : int&#xa;+ start_point : string&#xa;+ destination_point : string&#xa;+ distance : int&#xa;" style="text;strokeColor=none;fillColor=none;align=left;verticalAlign=top;spacingLeft=4;spacingRight=4;overflow=hidden;rotatable=0;points=[[0,0.5],[1,0.5]];portConstraint=eastwest;fontSize=35;" vertex="1" parent="s2ryrFD3tATTD8HhkPcw-15">
          <mxGeometry y="65" width="540" height="185" as="geometry"/>
        </mxCell>
        <mxCell id="s2ryrFD3tATTD8HhkPcw-17" value="" style="line;strokeWidth=1;fillColor=none;align=left;verticalAlign=middle;spacingTop=-1;spacingLeft=3;spacingRight=3;rotatable=0;labelPosition=right;points=[];portConstraint=eastwest;" vertex="1" parent="s2ryrFD3tATTD8HhkPcw-15">
          <mxGeometry y="250" width="540" height="8" as="geometry"/>
        </mxCell>
        <mxCell id="s2ryrFD3tATTD8HhkPcw-18" value="+ make_mission()&#xa;+ get_all_missions()&#xa;+ mission_accepted(user_id:int)&#xa;&#xa;" style="text;strokeColor=none;fillColor=none;align=left;verticalAlign=top;spacingLeft=4;spacingRight=4;overflow=hidden;rotatable=0;points=[[0,0.5],[1,0.5]];portConstraint=eastwest;fontSize=35;" vertex="1" parent="s2ryrFD3tATTD8HhkPcw-15">
          <mxGeometry y="258" width="540" height="172" as="geometry"/>
        </mxCell>
        <mxCell id="s2ryrFD3tATTD8HhkPcw-19" value="Message" style="swimlane;fontStyle=1;align=center;verticalAlign=top;childLayout=stackLayout;horizontal=1;startSize=65;horizontalStack=0;resizeParent=1;resizeParentMax=0;resizeLast=0;collapsible=1;marginBottom=0;fontSize=35;" vertex="1" parent="1">
          <mxGeometry x="272.5" y="1150" width="620" height="430" as="geometry"/>
        </mxCell>
        <mxCell id="s2ryrFD3tATTD8HhkPcw-20" value="+ ID : int&#xa;+ type : string&#xa;+ title : string&#xa;+ date : int (unix_time)&#xa;" style="text;strokeColor=none;fillColor=none;align=left;verticalAlign=top;spacingLeft=4;spacingRight=4;overflow=hidden;rotatable=0;points=[[0,0.5],[1,0.5]];portConstraint=eastwest;fontSize=35;" vertex="1" parent="s2ryrFD3tATTD8HhkPcw-19">
          <mxGeometry y="65" width="620" height="185" as="geometry"/>
        </mxCell>
        <mxCell id="s2ryrFD3tATTD8HhkPcw-21" value="" style="line;strokeWidth=1;fillColor=none;align=left;verticalAlign=middle;spacingTop=-1;spacingLeft=3;spacingRight=3;rotatable=0;labelPosition=right;points=[];portConstraint=eastwest;" vertex="1" parent="s2ryrFD3tATTD8HhkPcw-19">
          <mxGeometry y="250" width="620" height="8" as="geometry"/>
        </mxCell>
        <mxCell id="s2ryrFD3tATTD8HhkPcw-22" value="+ message_to_all()&#xa;+ user_to_admin()&#xa;+ admin_to_special_user(user_id:int)&#xa;+ report(message_id : int)&#xa;&#xa;" style="text;strokeColor=none;fillColor=none;align=left;verticalAlign=top;spacingLeft=4;spacingRight=4;overflow=hidden;rotatable=0;points=[[0,0.5],[1,0.5]];portConstraint=eastwest;fontSize=35;" vertex="1" parent="s2ryrFD3tATTD8HhkPcw-19">
          <mxGeometry y="258" width="620" height="172" as="geometry"/>
        </mxCell>
        <mxCell id="s2ryrFD3tATTD8HhkPcw-24" value="Check" style="swimlane;fontStyle=1;align=center;verticalAlign=top;childLayout=stackLayout;horizontal=1;startSize=65;horizontalStack=0;resizeParent=1;resizeParentMax=0;resizeLast=0;collapsible=1;marginBottom=0;fontSize=35;" vertex="1" parent="1">
          <mxGeometry x="272.5" y="1680" width="620" height="410" as="geometry"/>
        </mxCell>
        <mxCell id="s2ryrFD3tATTD8HhkPcw-25" value="+ ID : int&#xa;+ mission_id : int&#xa;+ location : string&#xa;+ user_id : int&#xa;" style="text;strokeColor=none;fillColor=none;align=left;verticalAlign=top;spacingLeft=4;spacingRight=4;overflow=hidden;rotatable=0;points=[[0,0.5],[1,0.5]];portConstraint=eastwest;fontSize=35;" vertex="1" parent="s2ryrFD3tATTD8HhkPcw-24">
          <mxGeometry y="65" width="620" height="185" as="geometry"/>
        </mxCell>
        <mxCell id="s2ryrFD3tATTD8HhkPcw-26" value="" style="line;strokeWidth=1;fillColor=none;align=left;verticalAlign=middle;spacingTop=-1;spacingLeft=3;spacingRight=3;rotatable=0;labelPosition=right;points=[];portConstraint=eastwest;" vertex="1" parent="s2ryrFD3tATTD8HhkPcw-24">
          <mxGeometry y="250" width="620" height="8" as="geometry"/>
        </mxCell>
        <mxCell id="s2ryrFD3tATTD8HhkPcw-27" value="+ new_location(user_id : int)&#xa;+ make_route(mission_id : int)&#xa;&#xa;" style="text;strokeColor=none;fillColor=none;align=left;verticalAlign=top;spacingLeft=4;spacingRight=4;overflow=hidden;rotatable=0;points=[[0,0.5],[1,0.5]];portConstraint=eastwest;fontSize=35;" vertex="1" parent="s2ryrFD3tATTD8HhkPcw-24">
          <mxGeometry y="258" width="620" height="152" as="geometry"/>
        </mxCell>
      </root>
    </mxGraphModel>
  </diagram>
</mxfile>
